<svg width="471" height="137" viewBox="0 0 471 137" fill="none" xmlns="http://www.w3.org/2000/svg">
<path d="M1 105.73L31.5396 81.9051L49.6564 105.73H64.1498L72.4317 121.117H91.0661L108.665 81.9051L120.57 105.73L128.335 114.168H140.758L152.145 94.3139H163.533L181.132 68.0073H223.059V57.5839L249.976 32.2701L257.74 24.3285L278.445 57.5839L288.28 81.9051L293.974 100.766L313.126 114.168L318.302 94.3139L330.725 81.9051V54.1095L358.159 24.3285H390.769L410.956 1L421.826 32.2701L444.084 40.2117L454.436 54.1095H471" stroke="#54AE94"/>
<path d="M31.5396 82.8978L1 106.723V137H471V55.1022H454.436L444.084 41.2044L421.826 33.2627L410.956 1.99268L390.769 25.3211H358.159L330.725 55.1022V82.8978L318.302 95.3065L313.126 115.161L293.974 101.759L288.28 82.8978L278.445 58.5766L257.74 25.3211L249.976 33.2627L223.059 58.5766V69H181.132L163.533 95.3065H152.145L140.758 115.161H128.335L120.57 106.723L108.665 82.8978L91.0661 122.109H72.4317L64.1498 106.723H49.6564L31.5396 82.8978Z" fill="url(#paint0_linear_1_375)"/>
<defs>
<linearGradient id="paint0_linear_1_375" x1="236" y1="1.99268" x2="236" y2="137" gradientUnits="userSpaceOnUse">
<stop stop-color="#54AE94" stop-opacity="0.2"/>
<stop offset="1" stop-color="#54AE94" stop-opacity="0"/>
</linearGradient>
</defs>
</svg>
