<svg width="50" height="50" viewBox="0 0 50 50" fill="none" xmlns="http://www.w3.org/2000/svg">
<g clip-path="url(#clip0_1_281)">
<path d="M49.2522 31.0623C45.9108 44.4264 32.3624 52.5936 18.9374 49.2522C5.5733 45.9108 -2.59389 32.3623 0.747516 18.9373C4.08892 5.57328 17.6374 -2.59391 31.0624 0.747501C44.4264 4.08891 52.5936 17.6373 49.2522 31.0623Z" fill="#F7931A"/>
<path d="M36.0125 21.4117C36.5078 18.0711 33.9711 16.2766 30.5062 15.1016L31.6195 10.586L28.8976 9.90626L27.7844 14.2992C27.0422 14.1133 26.3 13.9281 25.5578 13.8039L26.6711 9.41095L23.9492 8.73126L22.8359 13.2469C22.2172 13.1234 21.6602 12.9992 21.1039 12.8141L17.3305 11.8859L16.5883 14.7938L18.568 15.2891C19.6812 15.5367 19.8672 16.2789 19.8672 16.8984L18.5656 22.0313C18.6281 22.0313 18.7516 22.0938 18.875 22.0938C18.8125 22.0938 18.6891 22.0313 18.5656 22.0313L16.7711 29.2078C16.6476 29.5172 16.2758 30.0672 15.5336 29.8875C15.5336 29.95 13.5539 29.3922 13.5539 29.3922L12.193 32.5485L15.7812 33.4078C16.4609 33.5938 17.0805 33.7789 17.7609 33.9031L16.6476 38.4813L19.3695 39.1609L20.4828 34.6453L22.6562 35.211L21.543 39.7266L24.2648 40.4063L25.3781 35.8281C30.0797 36.6875 33.5445 36.3852 35.0297 32.1172C36.2055 28.7149 34.9672 26.7266 32.493 25.4352C34.3492 25.0641 35.6492 23.8883 36.0195 21.4141L36.0125 21.4117ZM29.7641 30.2578C28.9047 33.6602 23.2062 31.8047 21.35 31.3711L22.8344 25.3086C24.6906 25.7414 30.6297 26.6695 29.7641 30.2578ZM30.6234 21.4109C29.8812 24.5047 25.0555 22.9578 23.5086 22.5242L24.8695 17.018C26.4164 17.4508 31.4273 18.1313 30.6234 21.4109Z" fill="white"/>
</g>
<defs>
<clipPath id="clip0_1_281">
<rect width="50" height="50" fill="white"/>
</clipPath>
</defs>
</svg>
