<svg width="25" height="24" viewBox="0 0 25 24" fill="none" xmlns="http://www.w3.org/2000/svg">
<path d="M9.18401 22C13.05 22 16.184 18.866 16.184 15C16.184 11.134 13.05 8 9.18401 8C5.31801 8 2.18401 11.134 2.18401 15C2.18401 18.866 5.31801 22 9.18401 22Z" fill="#54AE94"/>
<path d="M22.184 9C22.184 11.74 20.614 14.11 18.324 15.25C18.014 15.41 17.664 15.16 17.634 14.82C17.294 10.37 13.784 6.89 9.36402 6.55C9.01402 6.52 8.77402 6.17 8.93402 5.86C10.074 3.57 12.444 2 15.184 2C19.054 2 22.184 5.13 22.184 9Z" fill="#54AE94"/>
</svg>
