<svg width="142" height="76" viewBox="0 0 142 76" fill="none" xmlns="http://www.w3.org/2000/svg">
<path d="M1 53.349L3.33333 48.5808C5.66667 43.8125 10.3333 34.2761 15 35.6691C19.6667 37.0621 24.3333 49.3845 29 51.9636C33.6667 54.5427 38.3333 47.3785 43 46.3359C47.6667 45.2932 52.3333 50.3722 57 43.381C61.6667 36.3898 66.3333 17.3285 71 14.734C75.6667 12.1395 80.3333 26.0117 85 24.1668C89.6667 22.322 94.3333 4.76007 99 1.56075C103.667 -1.63856 108.333 9.52473 113 18.0002C117.667 26.4756 122.333 32.2632 127 34.7762C131.667 37.2892 136.333 36.5275 138.667 36.1467L141 35.7659" stroke="#54AE94"/>
<path d="M3.33333 48.5808L1 53.349V76H141V35.7659L138.667 36.1467C136.333 36.5275 131.667 37.2892 127 34.7762C122.333 32.2632 117.667 26.4756 113 18.0002C108.333 9.52473 103.667 -1.63856 99 1.56075C94.3333 4.76007 89.6667 22.322 85 24.1668C80.3333 26.0117 75.6667 12.1395 71 14.734C66.3333 17.3285 61.6667 36.3898 57 43.381C52.3333 50.3722 47.6667 45.2932 43 46.3359C38.3333 47.3785 33.6667 54.5427 29 51.9636C24.3333 49.3845 19.6667 37.0621 15 35.6691C10.3333 34.2761 5.66667 43.8125 3.33333 48.5808Z" fill="url(#paint0_linear_1_277)"/>
<defs>
<linearGradient id="paint0_linear_1_277" x1="71" y1="1" x2="71" y2="76" gradientUnits="userSpaceOnUse">
<stop stop-color="#54AE94" stop-opacity="0.2"/>
<stop offset="1" stop-color="#54AE94" stop-opacity="0"/>
</linearGradient>
</defs>
</svg>
