<svg width="142" height="77" viewBox="0 0 142 77" fill="none" xmlns="http://www.w3.org/2000/svg">
<path d="M1 1L2.55556 4.49874C4.11111 7.99747 7.22222 14.9949 10.3333 16.1899C13.4444 17.3849 16.5556 12.7773 19.6667 11.9859C22.7778 11.1944 25.8889 14.2191 29 20.7982C32.1111 27.3773 35.2222 37.5107 38.3333 40.9667C41.4444 44.4226 44.5556 41.2011 47.6667 41.5129C50.7778 41.8247 53.8889 45.67 57 44.3649C60.1111 43.0599 63.2222 36.6046 66.3333 34.6731C69.4444 32.7417 72.5556 35.3341 75.6667 40.0552C78.7778 44.7762 81.8889 51.6259 85 54.0834C88.1111 56.5408 91.2222 54.606 94.3333 54.0869C97.4444 53.5679 100.556 54.4647 103.667 54.1829C106.778 53.9011 109.889 52.4409 113 53.2283C116.111 54.0158 119.222 57.051 122.333 54.89C125.444 52.7291 128.556 45.3721 131.667 48.0244C134.778 50.6767 137.889 63.3384 139.444 69.6692L141 76" stroke="#54AE94"/>
<path d="M2.55556 4.49874L1 1V72.3062L141 76L139.444 69.6692L139.444 69.669C137.889 63.3382 134.778 50.6767 131.667 48.0244C128.556 45.3721 125.444 52.7291 122.333 54.89C119.222 57.051 116.111 54.0158 113 53.2283C109.889 52.4409 106.778 53.9011 103.667 54.1829C100.556 54.4647 97.4445 53.5679 94.3333 54.0869C91.2222 54.606 88.1111 56.5408 85 54.0834C81.8889 51.6259 78.7778 44.7762 75.6667 40.0552C72.5556 35.3341 69.4445 32.7417 66.3333 34.6731C63.2222 36.6046 60.1111 43.0599 57 44.3649C53.8889 45.67 50.7778 41.8247 47.6667 41.5129C44.5556 41.2011 41.4444 44.4226 38.3333 40.9667C35.2222 37.5107 32.1111 27.3773 29 20.7982C25.8889 14.2191 22.7778 11.1944 19.6667 11.9859C16.5556 12.7773 13.4444 17.3849 10.3333 16.1899C7.22222 14.9949 4.11111 7.99747 2.55556 4.49874Z" fill="url(#paint0_linear_1_295)"/>
<defs>
<linearGradient id="paint0_linear_1_295" x1="71" y1="1" x2="71" y2="76" gradientUnits="userSpaceOnUse">
<stop stop-color="#54AE94" stop-opacity="0.2"/>
<stop offset="1" stop-color="#54AE94" stop-opacity="0"/>
</linearGradient>
</defs>
</svg>
