<svg width="21" height="20" viewBox="0 0 21 20" fill="none" xmlns="http://www.w3.org/2000/svg">
<path d="M9.64999 5.15833L6.55832 2.06667C6.49999 2.00833 6.42499 1.95833 6.34166 1.925C6.33333 1.925 6.32499 1.925 6.31666 1.91667C6.24999 1.89167 6.18333 1.875 6.10833 1.875C5.94166 1.875 5.78332 1.94167 5.66666 2.05833L2.55833 5.15833C2.31666 5.4 2.31666 5.8 2.55833 6.04167C2.79999 6.28333 3.19999 6.28333 3.44166 6.04167L5.48333 4V17.5C5.48333 17.8417 5.76666 18.125 6.10833 18.125C6.44999 18.125 6.73333 17.8417 6.73333 17.5V4.00833L8.76666 6.04167C8.89166 6.16667 9.04999 6.225 9.20833 6.225C9.36666 6.225 9.52499 6.16667 9.64999 6.04167C9.89166 5.8 9.89166 5.40833 9.64999 5.15833Z" fill="#3A3A3A"/>
<path d="M18.4417 13.9583C18.2 13.7167 17.8 13.7167 17.5583 13.9583L15.5167 16V2.5C15.5167 2.15833 15.2333 1.875 14.8917 1.875C14.55 1.875 14.2667 2.15833 14.2667 2.5V15.9917L12.2333 13.9583C11.9917 13.7167 11.5917 13.7167 11.35 13.9583C11.1083 14.2 11.1083 14.6 11.35 14.8417L14.4417 17.9333C14.5 17.9917 14.575 18.0417 14.6583 18.075C14.6667 18.075 14.675 18.075 14.6833 18.0833C14.75 18.1083 14.825 18.125 14.9 18.125C15.0667 18.125 15.225 18.0583 15.3417 17.9417L18.4417 14.8417C18.6833 14.5917 18.6833 14.2 18.4417 13.9583Z" fill="#3A3A3A"/>
</svg>
