<svg width="20" height="20" viewBox="0 0 20 20" fill="#fff" xmlns="http://www.w3.org/2000/svg">
<path d="M10 15.8334C13.2217 15.8334 15.8333 13.2217 15.8333 10C15.8333 6.77836 13.2217 4.16669 10 4.16669C6.77834 4.16669 4.16666 6.77836 4.16666 10C4.16666 13.2217 6.77834 15.8334 10 15.8334Z" stroke="#54AE94" stroke-width="1.5" stroke-linecap="round" stroke-linejoin="round"/>
<path d="M10 19.1333C9.54167 19.1333 9.16667 18.7916 9.16667 18.3333V18.2666C9.16667 17.8083 9.54167 17.4333 10 17.4333C10.4583 17.4333 10.8333 17.8083 10.8333 18.2666C10.8333 18.725 10.4583 19.1333 10 19.1333ZM15.95 16.7833C15.7333 16.7833 15.525 16.7 15.3583 16.5416L15.25 16.4333C14.925 16.1083 14.925 15.5833 15.25 15.2583C15.575 14.9333 16.1 14.9333 16.425 15.2583L16.5333 15.3666C16.8583 15.6916 16.8583 16.2166 16.5333 16.5416C16.375 16.7 16.1667 16.7833 15.95 16.7833ZM4.05 16.7833C3.83334 16.7833 3.625 16.7 3.45834 16.5416C3.13334 16.2166 3.13334 15.6916 3.45834 15.3666L3.56667 15.2583C3.89167 14.9333 4.41667 14.9333 4.74167 15.2583C5.06667 15.5833 5.06667 16.1083 4.74167 16.4333L4.63334 16.5416C4.475 16.7 4.25834 16.7833 4.05 16.7833ZM18.3333 10.8333H18.2667C17.8083 10.8333 17.4333 10.4583 17.4333 9.99998C17.4333 9.54165 17.8083 9.16665 18.2667 9.16665C18.725 9.16665 19.1333 9.54165 19.1333 9.99998C19.1333 10.4583 18.7917 10.8333 18.3333 10.8333ZM1.73334 10.8333H1.66667C1.20834 10.8333 0.833336 10.4583 0.833336 9.99998C0.833336 9.54165 1.20834 9.16665 1.66667 9.16665C2.125 9.16665 2.53334 9.54165 2.53334 9.99998C2.53334 10.4583 2.19167 10.8333 1.73334 10.8333ZM15.8417 4.99165C15.625 4.99165 15.4167 4.90831 15.25 4.74998C14.925 4.42498 14.925 3.89998 15.25 3.57498L15.3583 3.46665C15.6833 3.14165 16.2083 3.14165 16.5333 3.46665C16.8583 3.79165 16.8583 4.31665 16.5333 4.64165L16.425 4.74998C16.2667 4.90831 16.0583 4.99165 15.8417 4.99165ZM4.15834 4.99165C3.94167 4.99165 3.73334 4.90831 3.56667 4.74998L3.45834 4.63331C3.13334 4.30831 3.13334 3.78331 3.45834 3.45831C3.78334 3.13331 4.30834 3.13331 4.63334 3.45831L4.74167 3.56665C5.06667 3.89165 5.06667 4.41665 4.74167 4.74165C4.58334 4.90831 4.36667 4.99165 4.15834 4.99165ZM10 2.53331C9.54167 2.53331 9.16667 2.19165 9.16667 1.73331V1.66665C9.16667 1.20831 9.54167 0.833313 10 0.833313C10.4583 0.833313 10.8333 1.20831 10.8333 1.66665C10.8333 2.12498 10.4583 2.53331 10 2.53331Z" stroke="#54AE94" stroke-width="1.5" stroke-linecap="round" stroke-linejoin="round"/>
</svg>
