<svg width="74" height="24" viewBox="0 0 74 24" fill="none" xmlns="http://www.w3.org/2000/svg">
<path d="M8.192 23.712C7.01867 23.712 6.02667 23.4773 5.216 23.008C4.42667 22.5173 3.81867 21.8453 3.392 20.992H3.2L2.912 23.328L0 22.784V0.287998H3.392V9.504C3.776 8.864 4.384 8.29867 5.216 7.808C6.048 7.31733 7.04 7.072 8.192 7.072C9.51467 7.072 10.6987 7.392 11.744 8.032C12.7893 8.65066 13.6107 9.57866 14.208 10.816C14.8267 12.0533 15.136 13.5787 15.136 15.392C15.136 17.2053 14.8267 18.7307 14.208 19.968C13.6107 21.2053 12.7893 22.144 11.744 22.784C10.6987 23.4027 9.51467 23.712 8.192 23.712ZM7.488 20.48C8.704 20.48 9.70667 20.064 10.496 19.232C11.3067 18.3787 11.712 17.1093 11.712 15.424C11.712 13.7173 11.3067 12.4373 10.496 11.584C9.70667 10.7307 8.704 10.304 7.488 10.304C6.272 10.304 5.25867 10.7307 4.448 11.584C3.65867 12.416 3.264 13.6853 3.264 15.392C3.264 17.0773 3.65867 18.3467 4.448 19.2C5.25867 20.0533 6.272 20.48 7.488 20.48Z" fill="black"/>
<path d="M17.136 23.52V20.576H22.448V4.48C22.448 3.776 22.1067 3.424 21.424 3.424H17.584V0.48H22.032C23.2693 0.48 24.208 0.810666 24.848 1.472C25.5093 2.112 25.84 3.05067 25.84 4.288V20.576H31.184V23.52H17.136Z" fill="black"/>
<path d="M42.184 22C46.05 22 49.184 18.866 49.184 15C49.184 11.134 46.05 8 42.184 8C38.318 8 35.184 11.134 35.184 15C35.184 18.866 38.318 22 42.184 22Z" fill="#54AE94"/>
<path d="M55.184 9C55.184 11.74 53.614 14.11 51.324 15.25C51.014 15.41 50.664 15.16 50.634 14.82C50.294 10.37 46.784 6.89 42.364 6.55C42.014 6.52 41.774 6.17 41.934 5.86C43.074 3.57 45.444 2 48.184 2C52.054 2 55.184 5.13 55.184 9Z" fill="#54AE94"/>
<path d="M59.184 23.52V0.48H62.576V14.304L68.656 7.648H72.912L66.288 14.688V14.944L73.776 23.52H69.648L62.576 15.36V23.52H59.184Z" fill="black"/>
</svg>
