<svg width="51" height="50" viewBox="0 0 51 50" fill="none" xmlns="http://www.w3.org/2000/svg">
<g clip-path="url(#clip0_1_322)">
<path d="M25.5 0C39.3056 0 50.5 11.1944 50.5 25C50.5 38.8056 39.3056 50 25.5 50C11.6944 50 0.5 38.8125 0.5 25C0.5 11.1875 11.6944 0 25.5 0Z" fill="#26A17B"/>
<path d="M29.0201 22.2126V18.4903H37.5271V12.8237H14.3674V18.4903H22.8743V22.2126C15.9646 22.532 10.7632 23.9001 10.7632 25.5389C10.7632 27.1778 15.9646 28.5459 22.8743 28.8653V40.7751H29.0271V28.8653C35.9299 28.5459 41.1174 27.1778 41.1174 25.5389C41.1104 23.9001 35.9229 22.532 29.0201 22.2126ZM29.0271 27.8584C28.8535 27.8653 27.9646 27.9209 25.9785 27.9209C24.3882 27.9209 23.2771 27.8792 22.8812 27.8584V27.8653C16.7771 27.5945 12.2146 26.532 12.2146 25.2612C12.2146 23.9903 16.7701 22.9278 22.8812 22.657V26.7959C23.284 26.8237 24.4229 26.8931 26.0062 26.8931C27.9021 26.8931 28.8535 26.8167 29.034 26.7959V22.6431C35.1312 22.9139 39.6799 23.9764 39.6799 25.2473C39.666 26.5181 35.1174 27.5806 29.0271 27.8584Z" fill="white"/>
</g>
<defs>
<clipPath id="clip0_1_322">
<rect width="50" height="50" fill="white" transform="translate(0.5)"/>
</clipPath>
</defs>
</svg>
