<svg width="142" height="77" viewBox="0 0 142 77" fill="none" xmlns="http://www.w3.org/2000/svg">
<path d="M1 76L3.12121 72.7835C5.24242 69.567 9.48485 63.134 13.7273 60.3351C17.9697 57.5363 22.2121 58.3715 26.4545 53.6961C30.697 49.0207 34.9394 38.8346 39.1818 33.686C43.4242 28.5374 47.6667 28.4262 51.9091 28.2052C56.1515 27.9841 60.3939 27.6531 64.6364 30.5573C68.8788 33.4614 73.1212 39.6008 77.3636 39.8663C81.6061 40.1317 85.8485 34.5233 90.0909 33.0539C94.3333 31.5845 98.5758 34.2541 102.818 32.8372C107.061 31.4202 111.303 25.9168 115.545 19.3816C119.788 12.8463 124.03 5.2793 128.273 2.46444C132.515 -0.350407 136.758 1.58694 138.879 2.55561L141 3.52429" stroke="#54AE94"/>
<path d="M3.12121 72.7835L1 76H141V3.52429L138.879 2.55561C136.758 1.58694 132.515 -0.350407 128.273 2.46444C124.03 5.2793 119.788 12.8463 115.545 19.3816C111.303 25.9168 107.061 31.4202 102.818 32.8372C98.5758 34.2541 94.3333 31.5845 90.0909 33.0539C85.8485 34.5233 81.6061 40.1317 77.3636 39.8663C73.1212 39.6008 68.8788 33.4614 64.6364 30.5573C60.3939 27.6531 56.1515 27.9841 51.9091 28.2052C47.6667 28.4262 43.4242 28.5374 39.1818 33.686C34.9394 38.8346 30.697 49.0207 26.4545 53.6961C22.2121 58.3715 17.9697 57.5363 13.7273 60.3351C9.48485 63.134 5.24242 69.567 3.12121 72.7835Z" fill="url(#paint0_linear_1_318)"/>
<defs>
<linearGradient id="paint0_linear_1_318" x1="71" y1="1" x2="71" y2="76" gradientUnits="userSpaceOnUse">
<stop stop-color="#54AE94" stop-opacity="0.2"/>
<stop offset="1" stop-color="#18A0FB" stop-opacity="0"/>
<stop offset="1" stop-color="#54AE94" stop-opacity="0"/>
</linearGradient>
</defs>
</svg>
