<svg width="24" height="24" viewBox="0 0 24 24" fill="none" xmlns="http://www.w3.org/2000/svg">
<g id="vuesax/bold/home-trend-down">
<g id="vuesax/bold/home-trend-down_2">
<g id="home-trend-down">
<path id="Vector" d="M20.04 6.81994L14.28 2.78994C12.71 1.68994 10.3 1.74994 8.78999 2.91994L3.77999 6.82994C2.77999 7.60994 1.98999 9.20994 1.98999 10.4699V17.3699C1.98999 19.9199 4.05999 21.9999 6.60999 21.9999H17.39C19.94 21.9999 22.01 19.9299 22.01 17.3799V10.5999C22.01 9.24994 21.14 7.58994 20.04 6.81994ZM16.88 16.1899C16.88 16.2799 16.86 16.3699 16.83 16.4599C16.76 16.6299 16.62 16.7699 16.45 16.8399C16.36 16.8799 16.27 16.8899 16.18 16.8899H14.32C13.93 16.8899 13.62 16.5799 13.62 16.1899C13.62 15.7999 13.93 15.4899 14.32 15.4899H14.5L12.39 13.3799L11.37 14.8999C11.25 15.0699 11.07 15.1899 10.86 15.2099C10.64 15.2299 10.45 15.1599 10.3 15.0099L7.31999 12.0299C7.04999 11.7599 7.04999 11.3199 7.31999 11.0399C7.58999 10.7599 8.02999 10.7699 8.30999 11.0399L10.69 13.4199L11.71 11.8999C11.83 11.7299 12.01 11.6099 12.22 11.5899C12.44 11.5699 12.63 11.6399 12.78 11.7899L15.5 14.5099V14.3299C15.5 13.9399 15.81 13.6299 16.2 13.6299C16.59 13.6299 16.9 13.9399 16.9 14.3299V16.1899H16.88Z" fill="white"/>
</g>
</g>
</g>
</svg>
