<svg width="24" height="24" viewBox="0 0 24 24" fill="none" xmlns="http://www.w3.org/2000/svg">
<g id="vuesax/bold/logout">
<g id="vuesax/bold/logout_2">
<g id="logout">
<path id="Vector" d="M16.12 11.93C16.12 12.34 15.78 12.68 15.37 12.68L9.89001 12.68L9.89001 21.14C9.90001 21.62 10.28 22 10.76 22C16.65 22 20.76 17.89 20.76 12C20.76 6.11 16.65 2 10.76 2C10.29 2 9.90001 2.38 9.90001 2.86V11.19L15.37 11.19C15.79 11.18 16.12 11.52 16.12 11.93Z" fill="white"/>
<path id="Vector_2" d="M3.4599 12.4601L6.2999 15.3101C6.5899 15.6001 7.0699 15.6001 7.3599 15.3101C7.6499 15.0201 7.6499 14.5401 7.3599 14.2501L5.7999 12.6901H9.8999V11.1901H5.8099L7.3699 9.63009C7.6599 9.34009 7.6599 8.86009 7.3699 8.57009C7.2199 8.42009 7.0299 8.35009 6.8399 8.35009C6.6499 8.35009 6.4599 8.42009 6.3099 8.57009L3.4699 11.4201C3.1699 11.7001 3.1699 12.1701 3.4599 12.4601Z" fill="white"/>
</g>
</g>
</g>
</svg>
