<svg width="20" height="20" viewBox="0 0 20 20" fill="none" xmlns="http://www.w3.org/2000/svg">
<g id="vuesax/bold/moon">
<g id="vuesax/bold/moon_2">
<g id="moon">
<path id="Vector" d="M17.9417 13.2751C17.8083 13.0501 17.4333 12.7001 16.5 12.8667C15.9833 12.9584 15.4583 13.0001 14.9333 12.9751C12.9917 12.8917 11.2333 12.0001 10.0083 10.6251C8.925 9.41672 8.25833 7.84172 8.25 6.14172C8.25 5.19172 8.43333 4.27506 8.80833 3.40839C9.175 2.56672 8.91667 2.12506 8.73333 1.94172C8.54167 1.75006 8.09167 1.48339 7.20833 1.85006C3.8 3.28339 1.69167 6.70006 1.94167 10.3584C2.19167 13.8001 4.60833 16.7417 7.80833 17.8501C8.575 18.1167 9.38333 18.2751 10.2167 18.3084C10.35 18.3167 10.4833 18.3251 10.6167 18.3251C13.4083 18.3251 16.025 17.0084 17.675 14.7667C18.2333 13.9917 18.0833 13.5001 17.9417 13.2751Z" fill="#1F1E24"/>
</g>
</g>
</g>
</svg>
