<svg width="24" height="24" viewBox="0 0 24 24" fill="none" xmlns="http://www.w3.org/2000/svg">
<g id="vuesax/bold/graph">
<g id="vuesax/bold/graph_2">
<g id="graph">
<path id="Vector" d="M21.6702 6.95039C21.0302 4.78039 19.2202 2.97039 17.0502 2.33039C15.4002 1.85039 14.2602 1.89039 13.4702 2.48039C12.5202 3.19039 12.4102 4.47039 12.4102 5.38039V7.87039C12.4102 10.3304 13.5302 11.5804 15.7302 11.5804H18.6002C19.5002 11.5804 20.7902 11.4704 21.5002 10.5204C22.1102 9.74039 22.1602 8.60039 21.6702 6.95039Z" fill="#1F1E24" fill-opacity="0.5"/>
<path id="Vector_2" d="M18.9094 13.3601C18.6494 13.0601 18.2694 12.8902 17.8794 12.8902H14.2994C12.5394 12.8902 11.1094 11.4601 11.1094 9.70015V6.12015C11.1094 5.73015 10.9394 5.35015 10.6394 5.09015C10.3494 4.83015 9.94941 4.71015 9.56941 4.76015C7.21941 5.06015 5.05941 6.35015 3.64941 8.29015C2.22941 10.2401 1.70941 12.6201 2.15941 15.0001C2.80941 18.4401 5.55941 21.1902 9.00941 21.8402C9.55941 21.9502 10.1094 22.0002 10.6594 22.0002C12.4694 22.0002 14.2194 21.4402 15.7094 20.3502C17.6494 18.9402 18.9394 16.7801 19.2394 14.4302C19.2894 14.0402 19.1694 13.6501 18.9094 13.3601Z" fill="#1F1E24" fill-opacity="0.5"/>
</g>
</g>
</g>
</svg>
