<svg width="24" height="24" viewBox="0 0 24 24" fill="none" xmlns="http://www.w3.org/2000/svg">
<g id="vuesax/bold/messages">
<g id="vuesax/bold/messages_2">
<g id="messages">
<path id="Vector" d="M22.0009 12.8595C22.0009 15.1495 20.8209 17.1795 19.0009 18.4595L17.6609 21.4095C17.3509 22.0795 16.4509 22.2095 15.9809 21.6395L14.5009 19.8595C12.6409 19.8595 10.9309 19.2295 9.63086 18.1795L10.2309 17.4695C14.8509 17.1195 18.5009 13.4595 18.5009 8.99953C18.5009 8.23953 18.3909 7.48953 18.1909 6.76953C20.4609 7.96953 22.0009 10.2495 22.0009 12.8595Z" fill="#1F1E24" fill-opacity="0.5"/>
<path id="Vector_2" d="M16.3 6.07C15.13 3.67 12.52 2 9.5 2C5.36 2 2 5.13 2 9C2 11.29 3.18 13.32 5 14.6L6.34 17.55C6.65 18.22 7.55 18.34 8.02 17.78L8.57 17.12L9.5 16C13.64 16 17 12.87 17 9C17 7.95 16.75 6.96 16.3 6.07ZM12 9.75H7C6.59 9.75 6.25 9.41 6.25 9C6.25 8.59 6.59 8.25 7 8.25H12C12.41 8.25 12.75 8.59 12.75 9C12.75 9.41 12.41 9.75 12 9.75Z" fill="#1F1E24" fill-opacity="0.5"/>
</g>
</g>
</g>
</svg>
