<svg width="14" height="15" viewBox="0 0 14 15" fill="none" xmlns="http://www.w3.org/2000/svg">
<g id="vuesax/linear/star">
<g id="vuesax/linear/star_2">
<g id="star">
<path id="Vector" d="M8.00936 2.54754L9.03602 4.60087C9.17602 4.88671 9.54936 5.16087 9.86436 5.21337L11.7252 5.52254C12.9152 5.72087 13.1952 6.58421 12.3377 7.43587L10.891 8.88254C10.646 9.12754 10.5119 9.60004 10.5877 9.93837L11.0019 11.7292C11.3285 13.1467 10.576 13.695 9.32186 12.9542L7.57769 11.9217C7.26269 11.735 6.74352 11.735 6.42269 11.9217L4.67852 12.9542C3.43019 13.695 2.67186 13.1409 2.99852 11.7292L3.41269 9.93837C3.48852 9.60004 3.35436 9.12754 3.10936 8.88254L1.66269 7.43587C0.811024 6.58421 1.08519 5.72087 2.27519 5.52254L4.13602 5.21337C4.44519 5.16087 4.81852 4.88671 4.95852 4.60087L5.98519 2.54754C6.54519 1.43337 7.45519 1.43337 8.00936 2.54754Z" fill="#FFCE31"/>
</g>
</g>
</g>
</svg>
