<svg width="24" height="24" viewBox="0 0 24 24" fill="none" xmlns="http://www.w3.org/2000/svg">
<g id="vuesax/bold/magic-star">
<g id="vuesax/bold/magic-star_2">
<g id="magic-star">
<path id="Vector" d="M12.8324 2.45432L14.5781 5.81909C14.8172 6.28094 15.4363 6.73009 15.9533 6.80231L19.0297 7.27228C20.9995 7.56891 21.4719 8.98501 20.0879 10.4184L17.7303 12.8463C17.3367 13.2533 17.117 14.0437 17.2562 14.5939L17.9813 17.5453C18.5513 19.8754 17.3249 20.8024 15.2447 19.61L12.3387 17.9441C11.8094 17.6396 10.9554 17.6592 10.4424 17.9717L7.58757 19.7137C5.54399 20.9588 4.28825 20.07 4.79165 17.7264L5.43535 14.7606C5.55554 14.2062 5.3235 13.4219 4.91658 13.0283L2.47508 10.6668C1.05049 9.278 1.48156 7.84962 3.43849 7.49339L6.49405 6.93936C7.00984 6.84158 7.61664 6.38727 7.838 5.91451L9.48674 2.49451C10.3872 0.652195 11.8901 0.633306 12.8324 2.45432Z" fill="#1F1E24" fill-opacity="0.5"/>
</g>
</g>
</g>
</svg>
