<svg width="16" height="16" viewBox="0 0 16 16" fill="none" xmlns="http://www.w3.org/2000/svg">
<path d="M4.58643 12.6C4.31309 12.6 4.08643 12.3733 4.08643 12.1V10.72C4.08643 10.4466 4.31309 10.22 4.58643 10.22C4.85976 10.22 5.08643 10.4466 5.08643 10.72V12.1C5.08643 12.38 4.85976 12.6 4.58643 12.6Z" fill="#3D495C"/>
<path d="M8 12.5999C7.72667 12.5999 7.5 12.3733 7.5 12.0999V9.33325C7.5 9.05992 7.72667 8.83325 8 8.83325C8.27333 8.83325 8.5 9.05992 8.5 9.33325V12.0999C8.5 12.3799 8.27333 12.5999 8 12.5999Z" fill="#3D495C"/>
<path d="M11.4136 12.6C11.1402 12.6 10.9136 12.3734 10.9136 12.1V7.95337C10.9136 7.68004 11.1402 7.45337 11.4136 7.45337C11.6869 7.45337 11.9136 7.68004 11.9136 7.95337V12.1C11.9136 12.38 11.6936 12.6 11.4136 12.6Z" fill="#3D495C"/>
<path d="M4.58672 8.7867C4.36005 8.7867 4.16005 8.63336 4.10005 8.40669C4.03338 8.14003 4.19338 7.86669 4.46672 7.80003C6.92005 7.18669 9.08005 5.84669 10.7267 3.93336L11.0334 3.57336C11.2134 3.36669 11.5267 3.34003 11.74 3.52003C11.9467 3.70003 11.9734 4.01336 11.7934 4.22669L11.4867 4.58669C9.70672 6.66669 7.36005 8.11336 4.70672 8.77336C4.66672 8.78669 4.62672 8.7867 4.58672 8.7867Z" fill="#3D495C"/>
<path d="M11.4133 6.34657C11.14 6.34657 10.9133 6.1199 10.9133 5.84657V4.3999H9.45996C9.18663 4.3999 8.95996 4.17324 8.95996 3.8999C8.95996 3.62657 9.18663 3.3999 9.45996 3.3999H11.4133C11.6866 3.3999 11.9133 3.62657 11.9133 3.8999V5.85324C11.9133 6.12657 11.6933 6.34657 11.4133 6.34657Z" fill="#3D495C"/>
<path d="M10.0002 15.1666H6.00016C2.38016 15.1666 0.833496 13.6199 0.833496 9.99992V5.99992C0.833496 2.37992 2.38016 0.833252 6.00016 0.833252H10.0002C13.6202 0.833252 15.1668 2.37992 15.1668 5.99992V9.99992C15.1668 13.6199 13.6202 15.1666 10.0002 15.1666ZM6.00016 1.83325C2.92683 1.83325 1.8335 2.92658 1.8335 5.99992V9.99992C1.8335 13.0733 2.92683 14.1666 6.00016 14.1666H10.0002C13.0735 14.1666 14.1668 13.0733 14.1668 9.99992V5.99992C14.1668 2.92658 13.0735 1.83325 10.0002 1.83325H6.00016Z" fill="#3D495C"/>
</svg>
