<svg width="40" height="40" viewBox="0 0 40 40" fill="none" xmlns="http://www.w3.org/2000/svg">
<path d="M25.0002 37.9167C24.5502 37.9167 24.1335 37.6667 23.9168 37.2834C23.7002 36.8834 23.7002 36.4167 23.9335 36.0167L25.6835 33.1001C26.0335 32.5001 26.8168 32.3167 27.4002 32.6667C28.0002 33.0167 28.1835 33.7834 27.8335 34.3834L27.3835 35.1334C31.9835 34.0501 35.4335 29.9167 35.4335 24.9834C35.4335 24.3001 36.0002 23.7334 36.6835 23.7334C37.3668 23.7334 37.9335 24.3001 37.9335 24.9834C37.9168 32.1167 32.1168 37.9167 25.0002 37.9167Z" fill="#008C7A"/>
<path d="M3.3335 16.2499C2.65016 16.2499 2.0835 15.6833 2.0835 14.9999C2.0835 7.88325 7.8835 2.08325 15.0002 2.08325C15.4502 2.08325 15.8668 2.33325 16.0835 2.71659C16.3002 3.11659 16.3002 3.58325 16.0668 3.98325L14.3168 6.89992C13.9668 7.48325 13.2002 7.68325 12.6002 7.31659C12.0168 6.96659 11.8168 6.19992 12.1835 5.59992L12.6335 4.84992C8.01683 5.93325 4.5835 10.0666 4.5835 14.9999C4.5835 15.6833 4.01683 16.2499 3.3335 16.2499Z" fill="#008C7A"/>
<path d="M24.6668 21.0499V25.9499C24.6668 30.0333 23.0335 31.6666 18.9502 31.6666H14.0502C9.96683 31.6666 8.3335 30.0333 8.3335 25.9499V21.0499C8.3335 16.9666 9.96683 15.3333 14.0502 15.3333H18.9502C23.0335 15.3333 24.6668 16.9666 24.6668 21.0499Z" fill="#008C7A"/>
<path d="M25.9501 8.33325H21.0501C17.0334 8.33325 15.4001 9.93325 15.3501 13.8666H18.9501C23.8501 13.8666 26.1168 16.1499 26.1168 21.0333V24.6333C30.0668 24.5833 31.6501 22.9499 31.6501 18.9333V14.0499C31.6668 9.96659 30.0334 8.33325 25.9501 8.33325Z" fill="#008C7A"/>
</svg>
