<svg width="41" height="40" viewBox="0 0 41 40" fill="none" xmlns="http://www.w3.org/2000/svg">
<path d="M34.6668 8.74992H31.7502V5.83325C31.7502 5.14992 31.1835 4.58325 30.5002 4.58325C29.8168 4.58325 29.2502 5.14992 29.2502 5.83325V8.74992H26.3335C25.6502 8.74992 25.0835 9.31659 25.0835 9.99992C25.0835 10.6833 25.6502 11.2499 26.3335 11.2499H29.2502V14.1666C29.2502 14.8499 29.8168 15.4166 30.5002 15.4166C31.1835 15.4166 31.7502 14.8499 31.7502 14.1666V11.2499H34.6668C35.3502 11.2499 35.9168 10.6833 35.9168 9.99992C35.9168 9.31659 35.3502 8.74992 34.6668 8.74992Z" fill="#008C7A"/>
<path d="M18.9168 24.9166L15.8335 27.9999C15.1835 28.6499 14.1502 28.6499 13.4835 28.0166C13.3002 27.8333 13.1168 27.6666 12.9335 27.4833C11.2168 25.7499 9.66683 23.9333 8.2835 22.0333C6.91683 20.1333 5.81683 18.2333 5.01683 16.3499C4.2335 14.4499 3.8335 12.6333 3.8335 10.8999C3.8335 9.76658 4.0335 8.68325 4.4335 7.68325C4.8335 6.66659 5.46683 5.73325 6.35016 4.89992C7.41683 3.84992 8.5835 3.33325 9.81683 3.33325C10.2835 3.33325 10.7502 3.43325 11.1668 3.63325C11.6002 3.83325 11.9835 4.13325 12.2835 4.56659L16.1502 10.0166C16.4502 10.4333 16.6668 10.8166 16.8168 11.1833C16.9668 11.5333 17.0502 11.8833 17.0502 12.1999C17.0502 12.5999 16.9335 12.9999 16.7002 13.3833C16.4835 13.7666 16.1668 14.1666 15.7668 14.5666L14.5002 15.8833C14.3168 16.0666 14.2335 16.2833 14.2335 16.5499C14.2335 16.6833 14.2502 16.7999 14.2835 16.9333C14.3335 17.0666 14.3835 17.1666 14.4168 17.2666C14.7168 17.8166 15.2335 18.5333 15.9668 19.3999C16.7168 20.2666 17.5168 21.1499 18.3835 22.0333C18.5502 22.1999 18.7335 22.3666 18.9002 22.5333C19.5668 23.1833 19.5835 24.2499 18.9168 24.9166Z" fill="#008C7A"/>
<path d="M37.1167 30.5499C37.1167 31.0166 37.0333 31.4999 36.8667 31.9666C36.8167 32.0999 36.7667 32.2332 36.7 32.3666C36.4167 32.9666 36.05 33.5332 35.5667 34.0666C34.75 34.9666 33.85 35.6166 32.8333 36.0332C32.8167 36.0332 32.8 36.0499 32.7833 36.0499C31.8 36.4499 30.7333 36.6666 29.5833 36.6666C27.8833 36.6666 26.0667 36.2666 24.15 35.4499C22.2333 34.6332 20.3167 33.5332 18.4167 32.1499C17.7667 31.6666 17.1167 31.1832 16.5 30.6666L21.95 25.2166C22.4167 25.5666 22.8333 25.8332 23.1833 26.0166C23.2667 26.0499 23.3667 26.0999 23.4833 26.1499C23.6167 26.1999 23.75 26.2166 23.9 26.2166C24.1833 26.2166 24.4 26.1166 24.5833 25.9332L25.85 24.6832C26.2667 24.2666 26.6667 23.9499 27.05 23.7499C27.4333 23.5166 27.8167 23.3999 28.2333 23.3999C28.55 23.3999 28.8833 23.4666 29.25 23.6166C29.6167 23.7666 30 23.9832 30.4167 24.2666L35.9333 28.1832C36.3667 28.4832 36.6667 28.8332 36.85 29.2499C37.0167 29.6666 37.1167 30.0832 37.1167 30.5499Z" fill="#008C7A"/>
</svg>
