<svg width="40" height="40" viewBox="0 0 40 40" fill="none" xmlns="http://www.w3.org/2000/svg">
<path d="M29.2668 3.33325H10.6835C6.6335 3.33325 3.3335 6.63325 3.3335 10.6833V21.5166V21.8499C3.3335 25.9166 6.6335 29.1999 10.6835 29.1999H17.0835C18.0002 29.1999 18.7502 29.9499 18.7502 30.8666V32.4833C18.7502 33.3999 18.0002 34.1499 17.0835 34.1499H13.0502C12.3668 34.1499 11.8002 34.7166 11.8002 35.3999C11.8002 36.0833 12.3502 36.6666 13.0502 36.6666H26.9668C27.6502 36.6666 28.2168 36.0999 28.2168 35.4166C28.2168 34.7333 27.6502 34.1666 26.9668 34.1666H22.9335C22.0168 34.1666 21.2668 33.4166 21.2668 32.4999V30.8833C21.2668 29.9666 22.0168 29.2166 22.9335 29.2166H29.2835C33.3502 29.2166 36.6335 25.9166 36.6335 21.8666V21.5333V10.6999C36.6168 6.63325 33.3168 3.33325 29.2668 3.33325Z" fill="#008C7A"/>
</svg>
