<svg width="40" height="40" viewBox="0 0 40 40" fill="none" xmlns="http://www.w3.org/2000/svg">
<path d="M33.9332 21.2168C33.3165 21.2168 32.7998 20.7501 32.7332 20.1335C32.3332 16.4668 30.3665 13.1668 27.3332 11.0668C26.7832 10.6835 26.6498 9.93345 27.0332 9.38345C27.4165 8.83345 28.1665 8.70012 28.7165 9.08345C32.3332 11.6001 34.6665 15.5335 35.1498 19.8835C35.2165 20.5501 34.7332 21.1501 34.0665 21.2168C34.0165 21.2168 33.9832 21.2168 33.9332 21.2168Z" fill="#008C7A"/>
<path d="M6.23349 21.3001C6.20016 21.3001 6.15016 21.3001 6.11682 21.3001C5.45016 21.2334 4.96682 20.6334 5.03349 19.9668C5.48349 15.6168 7.78349 11.6834 11.3668 9.15009C11.9002 8.76676 12.6668 8.90009 13.0502 9.43342C13.4335 9.98342 13.3002 10.7334 12.7668 11.1168C9.76682 13.2501 7.81682 16.5501 7.45015 20.2001C7.38349 20.8334 6.85016 21.3001 6.23349 21.3001Z" fill="#008C7A"/>
<path d="M26.6502 35.1667C24.6002 36.15 22.4002 36.65 20.1002 36.65C17.7002 36.65 15.4168 36.1167 13.2835 35.0333C12.6835 34.75 12.4502 34.0167 12.7502 33.4167C13.0335 32.8167 13.7668 32.5833 14.3668 32.8667C15.4168 33.4 16.5335 33.7667 17.6668 33.9833C19.2002 34.2833 20.7668 34.3 22.3002 34.0333C23.4335 33.8333 24.5502 33.4833 25.5835 32.9833C26.2002 32.7 26.9335 32.9333 27.2002 33.55C27.5002 34.15 27.2668 34.8833 26.6502 35.1667Z" fill="#008C7A"/>
<path d="M20.0833 3.3501C17.5 3.3501 15.3833 5.4501 15.3833 8.0501C15.3833 10.6501 17.4833 12.7501 20.0833 12.7501C22.6833 12.7501 24.7833 10.6501 24.7833 8.0501C24.7833 5.4501 22.6833 3.3501 20.0833 3.3501Z" fill="#008C7A"/>
<path d="M8.4168 23.1167C5.83346 23.1167 3.7168 25.2167 3.7168 27.8167C3.7168 30.4167 5.8168 32.5167 8.4168 32.5167C11.0168 32.5167 13.1168 30.4167 13.1168 27.8167C13.1168 25.2167 11.0001 23.1167 8.4168 23.1167Z" fill="#008C7A"/>
<path d="M31.5833 23.1167C29 23.1167 26.8833 25.2167 26.8833 27.8167C26.8833 30.4167 28.9833 32.5167 31.5833 32.5167C34.1833 32.5167 36.2833 30.4167 36.2833 27.8167C36.2833 25.2167 34.1833 23.1167 31.5833 23.1167Z" fill="#008C7A"/>
</svg>
