<svg width="292" height="70" viewBox="0 0 292 70" fill="none" xmlns="http://www.w3.org/2000/svg">
<path d="M24 20.5H38C45.732 20.5 52 26.768 52 34.5V34.5H24V20.5Z" fill="#A1E2B9"/>
<path d="M24 35.5H52V35.5C52 43.232 45.732 49.5 38 49.5H24V35.5Z" fill="#319B8D"/>
<path d="M69.512 23.2H60.783V43.5C61.74 43.5 68.439 43.5 69.512 43.5C77.98 43.5 79.517 37.294 79.517 33.379C79.517 29.464 78.096 23.2 69.512 23.2ZM69.512 39.498C67.482 39.498 65.974 39.498 65.191 39.498V27.231C65.191 27.231 67.656 27.231 69.512 27.231C74.065 27.231 74.935 31.088 74.935 33.379C74.935 35.554 74.036 39.498 69.512 39.498ZM94.3195 29.638C93.2175 28.188 91.3905 27.231 88.3745 27.231C81.5015 27.231 80.7765 33.002 80.7765 35.38C80.7765 37.555 81.5305 43.5 88.3455 43.5C91.4195 43.5 93.2755 42.659 94.3775 41.238H94.5225V43.5H98.9305V27.231H94.5225V29.638H94.3195ZM89.6505 39.73C85.4455 39.73 84.9815 36.54 84.9815 35.38C84.9815 34.104 85.4165 31.03 89.6505 31.03C93.4495 31.03 94.2325 33.176 94.2325 35.38C94.2325 37.845 93.4495 39.73 89.6505 39.73ZM122.813 27.231C118.753 27.231 117.448 28.188 116.375 29.638H116.172C115.244 28.275 113.591 27.231 110.662 27.231C107.762 27.231 106.312 28.188 105.268 29.638H105.065V27.376H100.686V43.5H105.065V35.67C105.065 33.466 105.326 31.03 109.125 31.03C113.127 31.03 113.069 34.104 113.069 35.38V43.5H117.448V35.583L117.477 35.67C117.477 33.466 117.738 31.03 121.537 31.03C125.539 31.03 125.481 34.104 125.481 35.38V43.5H129.889V35.38C129.86 33.002 129.686 27.231 122.813 27.231ZM139.98 26.941C135.05 26.941 130.932 29.638 130.932 35.235C130.932 40.861 135.05 43.5 139.98 43.5C144.939 43.5 149.057 40.948 149.057 35.235C149.057 29.58 144.939 26.941 139.98 26.941ZM139.98 39.498C137.225 39.498 135.253 38.28 135.253 35.235C135.253 32.161 137.225 30.972 139.98 30.972C142.764 30.972 144.736 32.219 144.736 35.235C144.736 38.164 142.764 39.498 139.98 39.498ZM158.322 33.64L157.945 33.611C155.103 33.176 154.61 32.77 154.61 32.045C154.61 31.552 155.132 30.653 157.597 30.653C160.149 30.653 161.251 31.349 161.251 32.625V32.77H165.746V32.625C165.746 30.131 164.325 27.144 157.597 27.144C151.333 27.144 150.028 29.841 150.028 32.103C150.028 35.351 152.928 36.395 157.597 37.004C157.829 37.033 158.061 37.062 158.293 37.091C160.062 37.294 161.628 37.526 161.628 38.744C161.628 39.817 159.946 40.049 158.177 40.049C155.248 40.049 154.204 39.411 154.204 38.019V37.874H149.68V38.193C149.651 39.034 149.651 40.397 150.782 41.528C152.087 42.833 154.61 43.5 158.293 43.5C163.281 43.5 166.181 42.717 166.181 38.686C166.181 34.829 162.005 34.191 158.322 33.64ZM173.057 31.001H178.335V27.289H173.057V22.591H168.62V27.289H166.474V31.001H168.62V37.526C168.62 39.875 168.62 43.5 173.057 43.5C177.465 43.5 178.335 43.21 178.335 43.21V38.918C174.101 39.15 173.057 39.469 173.057 37.12V36.772V31.001ZM183.909 43.5V27.347H179.53V43.5H183.909ZM183.909 26.187V22.243H179.53V26.187H183.909ZM203.138 27.231H197.019L189.856 34.307V22.562H185.477V43.471H189.856V40.31L193.017 37.178L197.599 43.5H203.08L196.236 34.046L203.138 27.231ZM214.999 22.562V29.638H214.738C213.636 28.188 211.809 27.231 208.793 27.231C201.92 27.231 201.195 33.002 201.195 35.38C201.195 37.555 201.949 43.5 208.764 43.5C211.838 43.5 213.694 42.659 214.796 41.238H214.999V43.5H219.407V22.562H214.999ZM210.069 39.73C205.864 39.73 205.4 36.54 205.4 35.38C205.4 34.104 205.835 31.03 210.069 31.03C213.868 31.03 214.651 33.176 214.651 35.38C214.651 37.845 213.868 39.73 210.069 39.73ZM234.618 29.638C233.516 28.188 231.689 27.231 228.673 27.231C221.8 27.231 221.075 33.002 221.075 35.38C221.075 37.555 221.829 43.5 228.644 43.5C231.718 43.5 233.574 42.659 234.676 41.238H234.821V43.5H239.229V27.231H234.821V29.638H234.618ZM229.949 39.73C225.744 39.73 225.28 36.54 225.28 35.38C225.28 34.104 225.715 31.03 229.949 31.03C233.748 31.03 234.531 33.176 234.531 35.38C234.531 37.845 233.748 39.73 229.949 39.73ZM246.86 31.001H252.138V27.289H246.86V22.591H242.423V27.289H240.277V31.001H242.423V37.526C242.423 39.875 242.423 43.5 246.86 43.5C251.268 43.5 252.138 43.21 252.138 43.21V38.918C247.904 39.15 246.86 39.469 246.86 37.12V36.772V31.001ZM265.969 29.638C264.867 28.188 263.04 27.231 260.024 27.231C253.151 27.231 252.426 33.002 252.426 35.38C252.426 37.555 253.18 43.5 259.995 43.5C263.069 43.5 264.925 42.659 266.027 41.238H266.172V43.5H270.58V27.231H266.172V29.638H265.969ZM261.3 39.73C257.095 39.73 256.631 36.54 256.631 35.38C256.631 34.104 257.066 31.03 261.3 31.03C265.099 31.03 265.882 33.176 265.882 35.38C265.882 37.845 265.099 39.73 261.3 39.73Z" fill="#1E1E1E"/>
</svg>
