<svg width="22" height="22" viewBox="0 0 22 22" fill="none" xmlns="http://www.w3.org/2000/svg">
<path d="M17.4992 11.5408C17.3525 11.5408 17.2059 11.4949 17.0775 11.3941C13.3834 8.54328 8.60752 8.54328 4.91335 11.3941C4.61085 11.6233 4.18002 11.5683 3.95085 11.2749C3.72168 10.9724 3.77669 10.5416 4.07002 10.3125C8.27752 7.05828 13.7133 7.05828 17.9117 10.3125C18.2142 10.5416 18.2692 10.9724 18.0309 11.2749C17.9117 11.4491 17.71 11.5408 17.4992 11.5408Z" fill="#6767FF"/>
<path d="M20.1668 8.35078C20.0202 8.35078 19.8735 8.30497 19.7451 8.20414C14.4285 4.09747 7.56266 4.09747 2.25516 8.20414C1.95266 8.43331 1.52182 8.3783 1.29265 8.08497C1.06349 7.78247 1.11848 7.35162 1.41181 7.12245C7.23264 2.62162 14.7585 2.62162 20.5885 7.12245C20.891 7.35162 20.946 7.78247 20.7076 8.08497C20.5793 8.25913 20.3685 8.35078 20.1668 8.35078Z" fill="#6767FF"/>
<path d="M15.7758 14.8867C15.6291 14.8867 15.4824 14.8408 15.3541 14.74C12.7141 12.6958 9.29494 12.6958 6.64578 14.74C6.34328 14.9692 5.91244 14.9142 5.68327 14.6209C5.45411 14.3184 5.50911 13.8875 5.80244 13.6583C8.95578 11.22 13.0349 11.22 16.1883 13.6583C16.4908 13.8875 16.5458 14.3184 16.3074 14.6209C16.1791 14.795 15.9774 14.8867 15.7758 14.8867Z" fill="#6767FF"/>
<path d="M13.3832 18.2418C13.2366 18.2418 13.0899 18.1959 12.9616 18.0951C11.7699 17.1693 10.2207 17.1693 9.02908 18.0951C8.72658 18.3243 8.29575 18.2693 8.06658 17.9759C7.83741 17.6734 7.8924 17.2426 8.18574 17.0134C9.89074 15.6934 12.0907 15.6934 13.7957 17.0134C14.0982 17.2426 14.1532 17.6734 13.9149 17.9759C13.7957 18.1409 13.5941 18.2418 13.3832 18.2418Z" fill="#6767FF"/>
</svg>
