<svg width="24" height="24" viewBox="0 0 24 24" fill="none" xmlns="http://www.w3.org/2000/svg">
<path d="M11.8798 14.99C11.6898 14.99 11.4998 14.92 11.3498 14.77L8.78977 12.21C8.49977 11.92 8.49977 11.44 8.78977 11.15C9.07977 10.86 9.55977 10.86 9.84977 11.15L11.8798 13.18L13.9098 11.15C14.1998 10.86 14.6798 10.86 14.9698 11.15C15.2598 11.44 15.2598 11.92 14.9698 12.21L12.4098 14.77C12.2598 14.92 12.0698 14.99 11.8798 14.99Z" fill="#008C7A"/>
<path d="M11.8799 14.92C11.4699 14.92 11.1299 14.58 11.1299 14.17V4C11.1299 3.59 11.4699 3.25 11.8799 3.25C12.2899 3.25 12.6299 3.59 12.6299 4V14.17C12.6299 14.58 12.2899 14.92 11.8799 14.92Z" fill="#008C7A"/>
<path d="M12 20.9301C6.85 20.9301 3.25 17.3301 3.25 12.1801C3.25 11.7701 3.59 11.4301 4 11.4301C4.41 11.4301 4.75 11.7701 4.75 12.1801C4.75 16.4501 7.73 19.4301 12 19.4301C16.27 19.4301 19.25 16.4501 19.25 12.1801C19.25 11.7701 19.59 11.4301 20 11.4301C20.41 11.4301 20.75 11.7701 20.75 12.1801C20.75 17.3301 17.15 20.9301 12 20.9301Z" fill="#008C7A"/>
</svg>
