<svg width="22" height="22" viewBox="0 0 22 22" fill="none" xmlns="http://www.w3.org/2000/svg">
<path d="M10.8898 13.7409C10.7156 13.7409 10.5415 13.6767 10.404 13.5392L8.05729 11.1925C7.79145 10.9267 7.79145 10.4867 8.05729 10.2209C8.32312 9.95503 8.76312 9.95503 9.02895 10.2209L10.8898 12.0817L12.7506 10.2209C13.0165 9.95503 13.4565 9.95503 13.7223 10.2209C13.9881 10.4867 13.9881 10.9267 13.7223 11.1925L11.3756 13.5392C11.2381 13.6767 11.064 13.7409 10.8898 13.7409Z" fill="#008C7A"/>
<path d="M10.8901 13.6767C10.5143 13.6767 10.2026 13.3651 10.2026 12.9892V3.66675C10.2026 3.29091 10.5143 2.97925 10.8901 2.97925C11.266 2.97925 11.5776 3.29091 11.5776 3.66675V12.9892C11.5776 13.3651 11.266 13.6767 10.8901 13.6767Z" fill="#008C7A"/>
<path d="M10.9998 19.1859C6.279 19.1859 2.979 15.8859 2.979 11.165C2.979 10.7892 3.29067 10.4775 3.6665 10.4775C4.04234 10.4775 4.354 10.7892 4.354 11.165C4.354 15.0792 7.08567 17.8109 10.9998 17.8109C14.914 17.8109 17.6457 15.0792 17.6457 11.165C17.6457 10.7892 17.9573 10.4775 18.3332 10.4775C18.709 10.4775 19.0207 10.7892 19.0207 11.165C19.0207 15.8859 15.7207 19.1859 10.9998 19.1859Z" fill="#008C7A"/>
</svg>
