<svg width="16" height="16" viewBox="0 0 16 16" fill="none" xmlns="http://www.w3.org/2000/svg">
<path d="M11.6268 10.2466C11.5001 10.2466 11.3734 10.2 11.2734 10.1C11.0801 9.90663 11.0801 9.58663 11.2734 9.39329L12.6268 8.03996L11.2734 6.68663C11.0801 6.49329 11.0801 6.17329 11.2734 5.97996C11.4668 5.78663 11.7868 5.78663 11.9801 5.97996L13.6868 7.68663C13.8801 7.87996 13.8801 8.19996 13.6868 8.39329L11.9801 10.1C11.8801 10.2 11.7534 10.2466 11.6268 10.2466Z" fill="#3D495C"/>
<path d="M13.2868 8.54004H6.50684C6.2335 8.54004 6.00684 8.31337 6.00684 8.04004C6.00684 7.76671 6.2335 7.54004 6.50684 7.54004H13.2868C13.5602 7.54004 13.7868 7.76671 13.7868 8.04004C13.7868 8.31337 13.5602 8.54004 13.2868 8.54004Z" fill="#3D495C"/>
<path d="M7.84017 13.8334C4.40684 13.8334 2.00684 11.4334 2.00684 8.00008C2.00684 4.56675 4.40684 2.16675 7.84017 2.16675C8.1135 2.16675 8.34017 2.39341 8.34017 2.66675C8.34017 2.94008 8.1135 3.16675 7.84017 3.16675C4.9935 3.16675 3.00684 5.15341 3.00684 8.00008C3.00684 10.8467 4.9935 12.8334 7.84017 12.8334C8.1135 12.8334 8.34017 13.0601 8.34017 13.3334C8.34017 13.6067 8.1135 13.8334 7.84017 13.8334Z" fill="#3D495C"/>
</svg>
