<svg width="16" height="16" viewBox="0 0 16 16" fill="none" xmlns="http://www.w3.org/2000/svg">
<path d="M11.8265 15.1666H4.17317C2.51317 15.1666 1.1665 13.82 1.1665 12.16V7.6733C1.1665 6.0133 2.51317 4.66663 4.17317 4.66663H11.8265C13.4865 4.66663 14.8332 6.0133 14.8332 7.6733V8.6333C14.8332 8.90663 14.6065 9.1333 14.3332 9.1333H12.9865C12.7532 9.1333 12.5398 9.21996 12.3865 9.37996L12.3798 9.38664C12.1932 9.56664 12.1065 9.81328 12.1265 10.0666C12.1665 10.5066 12.5865 10.8599 13.0665 10.8599H14.3332C14.6065 10.8599 14.8332 11.0866 14.8332 11.3599V12.1533C14.8332 13.8199 13.4865 15.1666 11.8265 15.1666ZM4.17317 5.66663C3.0665 5.66663 2.1665 6.56663 2.1665 7.6733V12.16C2.1665 13.2666 3.0665 14.1666 4.17317 14.1666H11.8265C12.9332 14.1666 13.8332 13.2666 13.8332 12.16V11.8666H13.0665C12.0598 11.8666 11.2065 11.12 11.1265 10.16C11.0732 9.61329 11.2732 9.07331 11.6732 8.67997C12.0198 8.32664 12.4865 8.1333 12.9865 8.1333H13.8332V7.6733C13.8332 6.56663 12.9332 5.66663 11.8265 5.66663H4.17317Z" fill="#3D495C"/>
<path d="M1.6665 8.77338C1.39317 8.77338 1.1665 8.54671 1.1665 8.27338V5.22675C1.1665 4.23341 1.79317 3.33338 2.71984 2.98004L8.01317 0.980044C8.55984 0.773378 9.1665 0.846743 9.63984 1.18008C10.1198 1.51341 10.3998 2.05341 10.3998 2.63341V5.16673C10.3998 5.44006 10.1732 5.66673 9.89984 5.66673C9.6265 5.66673 9.39984 5.44006 9.39984 5.16673V2.63341C9.39984 2.38007 9.27984 2.14673 9.0665 2.00006C8.85317 1.8534 8.59984 1.82006 8.35984 1.91339L3.0665 3.91339C2.5265 4.12006 2.15984 4.64675 2.15984 5.22675V8.27338C2.1665 8.55338 1.93984 8.77338 1.6665 8.77338Z" fill="#3D495C"/>
<path d="M13.0666 11.8666C12.06 11.8666 11.2066 11.12 11.1266 10.16C11.0733 9.60662 11.2733 9.06663 11.6733 8.6733C12.0133 8.32663 12.48 8.1333 12.98 8.1333H14.3666C15.0266 8.1533 15.5333 8.67327 15.5333 9.31327V10.6866C15.5333 11.3266 15.0266 11.8466 14.3866 11.8666H13.0666ZM14.3533 9.1333H12.9866C12.7533 9.1333 12.54 9.21996 12.3866 9.37996C12.1933 9.56663 12.1 9.81995 12.1266 10.0733C12.1666 10.5133 12.5866 10.8666 13.0666 10.8666H14.3733C14.46 10.8666 14.54 10.7866 14.54 10.6866V9.31327C14.54 9.21327 14.46 9.13997 14.3533 9.1333Z" fill="#3D495C"/>
<path d="M9.33317 8.5H4.6665C4.39317 8.5 4.1665 8.27333 4.1665 8C4.1665 7.72667 4.39317 7.5 4.6665 7.5H9.33317C9.6065 7.5 9.83317 7.72667 9.83317 8C9.83317 8.27333 9.6065 8.5 9.33317 8.5Z" fill="#3D495C"/>
</svg>
