<svg width="17" height="16" viewBox="0 0 17 16" fill="none" xmlns="http://www.w3.org/2000/svg">
<path d="M8.34707 13.6867C6.79373 13.6867 5.2404 13.44 3.76707 12.9467C3.20707 12.7533 2.7804 12.36 2.59373 11.8467C2.4004 11.3333 2.46707 10.7667 2.77373 10.26L3.5404 8.98666C3.7004 8.71999 3.84707 8.18666 3.84707 7.87332V5.94666C3.84707 3.46666 5.86707 1.44666 8.34707 1.44666C10.8271 1.44666 12.8471 3.46666 12.8471 5.94666V7.87332C12.8471 8.17999 12.9937 8.71999 13.1537 8.99332L13.9137 10.26C14.2004 10.74 14.2537 11.32 14.0604 11.8467C13.8671 12.3733 13.4471 12.7733 12.9204 12.9467C11.4537 13.44 9.9004 13.6867 8.34707 13.6867ZM8.34707 2.44666C6.4204 2.44666 4.84707 4.01332 4.84707 5.94666V7.87332C4.84707 8.35999 4.64707 9.07999 4.4004 9.49999L3.63373 10.7733C3.48707 11.02 3.44707 11.28 3.53373 11.5C3.61373 11.7267 3.81373 11.9 4.08707 11.9933C6.87373 12.9267 9.82707 12.9267 12.6137 11.9933C12.8537 11.9133 13.0404 11.7333 13.1271 11.4933C13.2137 11.2533 13.1937 10.9933 13.0604 10.7733L12.2937 9.49999C12.0404 9.06666 11.8471 8.35332 11.8471 7.86666V5.94666C11.8471 4.01332 10.2804 2.44666 8.34707 2.44666Z" fill="#5F6980"/>
<path d="M9.58707 2.62662C9.5404 2.62662 9.49373 2.61995 9.44707 2.60662C9.25373 2.55329 9.06707 2.51329 8.88707 2.48662C8.3204 2.41329 7.77374 2.45329 7.2604 2.60662C7.07374 2.66662 6.87373 2.60662 6.74707 2.46662C6.6204 2.32662 6.5804 2.12662 6.65373 1.94662C6.92707 1.24662 7.59373 0.786621 8.35373 0.786621C9.11373 0.786621 9.7804 1.23995 10.0537 1.94662C10.1204 2.12662 10.0871 2.32662 9.9604 2.46662C9.8604 2.57329 9.7204 2.62662 9.58707 2.62662Z" fill="#5F6980"/>
<path d="M8.34668 15.2067C7.68668 15.2067 7.04668 14.94 6.58001 14.4733C6.11335 14.0067 5.84668 13.3667 5.84668 12.7067H6.84668C6.84668 13.1 7.00668 13.4867 7.28668 13.7667C7.56668 14.0467 7.95335 14.2067 8.34668 14.2067C9.17335 14.2067 9.84668 13.5333 9.84668 12.7067H10.8467C10.8467 14.0867 9.72668 15.2067 8.34668 15.2067Z" fill="#5F6980"/>
</svg>
