<svg width="16" height="16" viewBox="0 0 16 16" fill="none" xmlns="http://www.w3.org/2000/svg">
<path d="M8 7.01321C7.72667 7.01321 7.5 6.78655 7.5 6.51321V4.29321C7.5 4.01988 7.72667 3.79321 8 3.79321C8.27333 3.79321 8.5 4.01988 8.5 4.29321V6.51321C8.5 6.79321 8.27333 7.01321 8 7.01321Z" fill="#3D495C"/>
<path d="M8.01357 13.5667C6.29357 13.5667 4.58024 13.2933 2.9469 12.7467C2.34024 12.5467 1.88024 12.1133 1.68024 11.5667C1.48024 11.02 1.5469 10.3933 1.87357 9.84666L2.72024 8.43333C2.9069 8.11999 3.07357 7.53333 3.07357 7.16666V5.76666C3.07357 3.03999 5.2869 0.82666 8.01357 0.82666C10.7402 0.82666 12.9536 3.03999 12.9536 5.76666V7.16666C12.9536 7.52666 13.1202 8.11999 13.3069 8.43333L14.1536 9.84666C14.4669 10.3667 14.5202 10.9867 14.3136 11.5533C14.1069 12.12 13.6536 12.5533 13.0802 12.7467C11.4469 13.3 9.73357 13.5667 8.01357 13.5667ZM8.01357 1.83333C5.84024 1.83333 4.07357 3.59999 4.07357 5.77333V7.17333C4.07357 7.71333 3.86024 8.49333 3.58024 8.95333L2.73357 10.3733C2.56024 10.66 2.52024 10.9667 2.62024 11.2333C2.72024 11.5 2.9469 11.7 3.2669 11.8067C6.33357 12.8267 9.7069 12.8267 12.7736 11.8067C13.0602 11.7133 13.2802 11.5 13.3802 11.22C13.4869 10.94 13.4536 10.6333 13.3002 10.3733L12.4536 8.95999C12.1736 8.49999 11.9602 7.71999 11.9602 7.17999V5.77999C11.9536 3.59999 10.1869 1.83333 8.01357 1.83333Z" fill="#3D495C"/>
<path d="M7.99979 15.2666C7.28645 15.2666 6.58645 14.9733 6.07979 14.4666C5.57312 13.96 5.27979 13.26 5.27979 12.5466H6.27979C6.27979 13 6.46645 13.44 6.78645 13.76C7.10645 14.08 7.54645 14.2666 7.99979 14.2666C8.94645 14.2666 9.71979 13.4933 9.71979 12.5466H10.7198C10.7198 14.0466 9.49979 15.2666 7.99979 15.2666Z" fill="#3D495C"/>
</svg>
