<svg width="16" height="16" viewBox="0 0 16 16" fill="none" xmlns="http://www.w3.org/2000/svg">
<path d="M8 10.5C6.62 10.5 5.5 9.38 5.5 8C5.5 6.62 6.62 5.5 8 5.5C9.38 5.5 10.5 6.62 10.5 8C10.5 9.38 9.38 10.5 8 10.5ZM8 6.5C7.17333 6.5 6.5 7.17333 6.5 8C6.5 8.82667 7.17333 9.5 8 9.5C8.82667 9.5 9.5 8.82667 9.5 8C9.5 7.17333 8.82667 6.5 8 6.5Z" fill="#3D495C"/>
<path d="M10.1402 14.7934C10.0002 14.7934 9.86016 14.7734 9.72016 14.7401C9.30683 14.6268 8.96016 14.3668 8.74016 14.0001L8.66016 13.8668C8.26683 13.1868 7.72683 13.1868 7.3335 13.8668L7.26016 13.9934C7.04016 14.3668 6.6935 14.6334 6.28016 14.7401C5.86016 14.8534 5.42683 14.7934 5.06016 14.5734L3.9135 13.9134C3.50683 13.6801 3.2135 13.3001 3.08683 12.8401C2.96683 12.3801 3.02683 11.9068 3.26016 11.5001C3.4535 11.1601 3.50683 10.8534 3.3935 10.6601C3.28016 10.4668 2.9935 10.3534 2.60016 10.3534C1.62683 10.3534 0.833496 9.56011 0.833496 8.58678V7.41344C0.833496 6.44011 1.62683 5.64678 2.60016 5.64678C2.9935 5.64678 3.28016 5.53344 3.3935 5.34011C3.50683 5.14678 3.46016 4.84011 3.26016 4.50011C3.02683 4.09344 2.96683 3.61344 3.08683 3.16011C3.20683 2.70011 3.50016 2.32011 3.9135 2.08678L5.06683 1.42678C5.82016 0.98011 6.8135 1.24011 7.26683 2.00678L7.34683 2.14011C7.74016 2.82011 8.28016 2.82011 8.6735 2.14011L8.74683 2.01344C9.20016 1.24011 10.1935 0.98011 10.9535 1.43344L12.1002 2.09344C12.5068 2.32678 12.8002 2.70678 12.9268 3.16678C13.0468 3.62678 12.9868 4.10011 12.7535 4.50678C12.5602 4.84678 12.5068 5.15344 12.6202 5.34678C12.7335 5.54011 13.0202 5.65344 13.4135 5.65344C14.3868 5.65344 15.1802 6.44678 15.1802 7.42011V8.59344C15.1802 9.56678 14.3868 10.3601 13.4135 10.3601C13.0202 10.3601 12.7335 10.4734 12.6202 10.6668C12.5068 10.8601 12.5535 11.1668 12.7535 11.5068C12.9868 11.9134 13.0535 12.3934 12.9268 12.8468C12.8068 13.3068 12.5135 13.6868 12.1002 13.9201L10.9468 14.5801C10.6935 14.7201 10.4202 14.7934 10.1402 14.7934ZM8.00016 12.3268C8.5935 12.3268 9.14683 12.7001 9.52683 13.3601L9.60016 13.4868C9.68016 13.6268 9.8135 13.7268 9.9735 13.7668C10.1335 13.8068 10.2935 13.7868 10.4268 13.7068L11.5802 13.0401C11.7535 12.9401 11.8868 12.7734 11.9402 12.5734C11.9935 12.3734 11.9668 12.1668 11.8668 11.9934C11.4868 11.3401 11.4402 10.6668 11.7335 10.1534C12.0268 9.64011 12.6335 9.34678 13.3935 9.34678C13.8202 9.34678 14.1602 9.00678 14.1602 8.58011V7.40678C14.1602 6.98678 13.8202 6.64011 13.3935 6.64011C12.6335 6.64011 12.0268 6.34678 11.7335 5.83344C11.4402 5.32011 11.4868 4.64678 11.8668 3.99344C11.9668 3.82011 11.9935 3.61344 11.9402 3.41344C11.8868 3.21344 11.7602 3.05344 11.5868 2.94678L10.4335 2.28678C10.1468 2.11344 9.76683 2.21344 9.5935 2.50678L9.52016 2.63344C9.14016 3.29344 8.58683 3.66678 7.9935 3.66678C7.40016 3.66678 6.84683 3.29344 6.46683 2.63344L6.3935 2.50011C6.22683 2.22011 5.8535 2.12011 5.56683 2.28678L4.4135 2.95344C4.24016 3.05344 4.10683 3.22011 4.0535 3.42011C4.00016 3.62011 4.02683 3.82678 4.12683 4.00011C4.50683 4.65344 4.5535 5.32678 4.26016 5.84011C3.96683 6.35344 3.36016 6.64678 2.60016 6.64678C2.1735 6.64678 1.8335 6.98678 1.8335 7.41344V8.58678C1.8335 9.00678 2.1735 9.35344 2.60016 9.35344C3.36016 9.35344 3.96683 9.64678 4.26016 10.1601C4.5535 10.6734 4.50683 11.3468 4.12683 12.0001C4.02683 12.1734 4.00016 12.3801 4.0535 12.5801C4.10683 12.7801 4.2335 12.9401 4.40683 13.0468L5.56016 13.7068C5.70016 13.7934 5.86683 13.8134 6.02016 13.7734C6.18016 13.7334 6.3135 13.6268 6.40016 13.4868L6.4735 13.3601C6.8535 12.7068 7.40683 12.3268 8.00016 12.3268Z" fill="#3D495C"/>
</svg>
