<svg width="16" height="16" viewBox="0 0 16 16" fill="none" xmlns="http://www.w3.org/2000/svg">
<path d="M5.3335 14.88C5.14683 14.88 4.95348 14.8334 4.78015 14.74C4.40015 14.54 4.16683 14.14 4.16683 13.7133V12.7667C2.1535 12.5601 0.833496 11.08 0.833496 8.96V4.96004C0.833496 2.66671 2.3735 1.12671 4.66683 1.12671H11.3335C13.6268 1.12671 15.1668 2.66671 15.1668 4.96004V8.96C15.1668 11.2533 13.6268 12.7933 11.3335 12.7933H8.82015L5.98014 14.6867C5.78681 14.8134 5.56016 14.88 5.3335 14.88ZM4.66683 2.12004C2.94683 2.12004 1.8335 3.23337 1.8335 4.95337V8.95341C1.8335 10.6734 2.94683 11.7867 4.66683 11.7867C4.94016 11.7867 5.16683 12.0134 5.16683 12.2867V13.7067C5.16683 13.7934 5.22017 13.8334 5.2535 13.8534C5.28683 13.8734 5.35351 13.8934 5.42684 13.8467L8.39351 11.8734C8.47351 11.8201 8.5735 11.7867 8.6735 11.7867H11.3402C13.0602 11.7867 14.1735 10.6734 14.1735 8.95341V4.95337C14.1735 3.23337 13.0602 2.12004 11.3402 2.12004H4.66683Z" fill="#3D495C"/>
<path d="M7.99972 8.07324C7.72638 8.07324 7.49972 7.84658 7.49972 7.57324V7.43327C7.49972 6.65993 8.06637 6.27993 8.2797 6.13326C8.52637 5.96659 8.60636 5.85327 8.60636 5.67993C8.60636 5.3466 8.33305 5.07324 7.99972 5.07324C7.66638 5.07324 7.39307 5.3466 7.39307 5.67993C7.39307 5.95327 7.1664 6.17993 6.89307 6.17993C6.61973 6.17993 6.39307 5.95327 6.39307 5.67993C6.39307 4.79326 7.11305 4.07324 7.99972 4.07324C8.88638 4.07324 9.60636 4.79326 9.60636 5.67993C9.60636 6.43993 9.04639 6.81992 8.83972 6.95992C8.57972 7.13325 8.49972 7.2466 8.49972 7.43327V7.57324C8.49972 7.85324 8.27305 8.07324 7.99972 8.07324Z" fill="#3D495C"/>
<path d="M8 9.7334C7.72 9.7334 7.5 9.50673 7.5 9.2334C7.5 8.96007 7.72667 8.7334 8 8.7334C8.27333 8.7334 8.5 8.96007 8.5 9.2334C8.5 9.50673 8.28 9.7334 8 9.7334Z" fill="#3D495C"/>
</svg>
