<svg width="40" height="40" viewBox="0 0 40 40" fill="none" xmlns="http://www.w3.org/2000/svg">
<path d="M26.9002 4.9334L11.8502 9.9334C1.73353 13.3167 1.73353 18.8334 11.8502 22.2001L16.3169 23.6834L17.8002 28.1501C21.1669 38.2667 26.7002 38.2667 30.0669 28.1501L35.0835 13.1167C37.3169 6.36674 33.6502 2.6834 26.9002 4.9334ZM27.4335 13.9001L21.1002 20.2667C20.8502 20.5167 20.5335 20.6334 20.2169 20.6334C19.9002 20.6334 19.5835 20.5167 19.3335 20.2667C18.8502 19.7834 18.8502 18.9834 19.3335 18.5001L25.6669 12.1334C26.1502 11.6501 26.9502 11.6501 27.4335 12.1334C27.9169 12.6167 27.9169 13.4167 27.4335 13.9001Z" fill="#008C7A"/>
</svg>
