<svg width="40" height="40" viewBox="0 0 40 40" fill="none" xmlns="http://www.w3.org/2000/svg">
<path d="M31.8169 20.9833C31.5502 20.9833 31.2835 20.9 31.0502 20.7167C24.3335 15.5333 15.6502 15.5333 8.93355 20.7167C8.38355 21.1333 7.60021 21.0333 7.18355 20.5C6.76688 19.95 6.86688 19.1667 7.40021 18.75C15.0502 12.8333 24.9335 12.8333 32.5669 18.75C33.1169 19.1667 33.2169 19.95 32.7835 20.5C32.5669 20.8167 32.2002 20.9833 31.8169 20.9833Z" fill="#008C7A"/>
<path d="M36.6667 15.1833C36.4 15.1833 36.1334 15.1 35.9 14.9167C26.2333 7.45 13.75 7.45 4.10001 14.9167C3.55001 15.3333 2.76668 15.2333 2.35001 14.7C1.91668 14.1667 2.01668 13.3667 2.56668 12.95C13.15 4.76667 26.8333 4.76667 37.4333 12.95C37.9833 13.3667 38.0833 14.15 37.65 14.7C37.4167 15.0167 37.0333 15.1833 36.6667 15.1833Z" fill="#008C7A"/>
<path d="M28.6834 27.0666C28.4168 27.0666 28.1501 26.9833 27.9168 26.8C23.1168 23.0833 16.9001 23.0833 12.0834 26.8C11.5334 27.2166 10.7501 27.1166 10.3334 26.5833C9.91678 26.0333 10.0168 25.25 10.5501 24.8333C16.2834 20.4 23.7001 20.4 29.4334 24.8333C29.9834 25.25 30.0835 26.0333 29.6501 26.5833C29.4168 26.9 29.0501 27.0666 28.6834 27.0666Z" fill="#008C7A"/>
<path d="M24.3331 33.1666C24.0665 33.1666 23.7998 33.0833 23.5665 32.9C21.3998 31.2166 18.5831 31.2166 16.4165 32.9C15.8665 33.3166 15.0831 33.2166 14.6665 32.6833C14.2498 32.1333 14.3498 31.35 14.8831 30.9333C17.9831 28.5333 21.9831 28.5333 25.0831 30.9333C25.6331 31.35 25.7331 32.1333 25.2998 32.6833C25.0831 32.9833 24.7165 33.1666 24.3331 33.1666Z" fill="#008C7A"/>
</svg>
