<svg width="22" height="22" viewBox="0 0 22 22" fill="none" xmlns="http://www.w3.org/2000/svg">
<path d="M13.2365 6.64589C13.0623 6.64589 12.8881 6.58172 12.7506 6.44422L10.8898 4.58339L9.02895 6.44422C8.76312 6.71006 8.32312 6.71006 8.05729 6.44422C7.79145 6.17839 7.79145 5.73839 8.05729 5.47256L10.404 3.12589C10.6698 2.86006 11.1098 2.86006 11.3756 3.12589L13.7223 5.47256C13.9881 5.73839 13.9881 6.17839 13.7223 6.44422C13.5848 6.58172 13.4106 6.64589 13.2365 6.64589Z" fill="#FF5F76"/>
<path d="M10.8901 13.6858C10.5143 13.6858 10.2026 13.3741 10.2026 12.9983V3.67578C10.2026 3.29995 10.5143 2.98828 10.8901 2.98828C11.266 2.98828 11.5776 3.29995 11.5776 3.67578V12.9983C11.5776 13.3833 11.266 13.6858 10.8901 13.6858Z" fill="#FF5F76"/>
<path d="M10.9998 19.0208C6.279 19.0208 2.979 15.7208 2.979 11C2.979 10.6242 3.29067 10.3125 3.6665 10.3125C4.04234 10.3125 4.354 10.6242 4.354 11C4.354 14.9142 7.08567 17.6458 10.9998 17.6458C14.914 17.6458 17.6457 14.9142 17.6457 11C17.6457 10.6242 17.9573 10.3125 18.3332 10.3125C18.709 10.3125 19.0207 10.6242 19.0207 11C19.0207 15.7208 15.7207 19.0208 10.9998 19.0208Z" fill="#FF5F76"/>
</svg>
